<svg version="1.2" xmlns="http://www.w3.org/2000/svg" viewBox="0 0 2767 2767" width="1500" height="1500"><style>.a{fill:#fff}</style><path fill-rule="evenodd" class="a" d="m1710.6 1503.9h-4.2l-7.8-7.5-84.7-83.9-39.3-37.3-54 54.6h-119.3l74.8 74.1h-218c-111.5 0-202.8-91.3-202.8-202.8v-504.4h452.5c111.6 0 202.8 91.3 202.8 202.9zm-178.9-32.8h24.2l19.9-20.1 53.5 52.9h-64.4zm-307.9-357.1l262-267.8-73.5 0.4-302.4 305.5 0.4 77.4 159 157.2 83-0.4 294.9-298.1-0.4-82.1-263.2 266zm85.4 224.7l-155.5-153.9 32-32.3 155.5 153.9zm185.7 46.8l153.1-154.7-0.4-70.4-219.3 225.5zm-351.6-343.1l194.7-195.5-72 0.4-123.1 124.6z"/><path class="a" d="m465.8 1972.1v-45.3h-140.7c-46.8 0-80.7-36.1-80.7-85 0-49.2 34.3-83.9 80.7-83.9h140.7v-45.3h-140.7c-72.5 0-126 50.7-126 127.1 0 75.3 53.5 132.4 126 132.4zm362 0l-149.6-248.4c-5.3-9-11.8-14.7-21.8-14.7-10 0-16.7 5.7-22.1 14.7l-149.2 248.4h51.7l117.9-199.2 57.8 97.1h-79.6l-21.4 36.8h122.8l38.9 65.3zm352.3 0l-140.6-134.9 129.2-124.6h-58.9l-97.5 96-98.8-96h-62.5l129.2 124.6-139.2 134.9h58.9l107.8-106 108.9 106zm357.7 0l-149.6-248.4c-5.3-9-11.8-14.7-21.8-14.7-10 0-16.7 5.7-22.1 14.7l-149.2 248.4h51.8l117.8-199.2 57.8 97.1h-79.6l-21.4 36.8h122.8l38.9 65.3zm395.9 0l-66.4-244.1c-3.6-12.5-10.7-18.6-21.8-18.6-9.6 0-17.5 5.3-21.8 15.3l-79.9 183.5-80-183.5c-4.3-10-13.2-15.3-22.8-15.3-12.2 0-19.3 6.1-22.5 18.6l-66.8 244.1h44.6l49.7-182.4 73.1 168.9c4.7 11 12.5 17.1 23.2 17.1 11.1 0 18.3-6.1 23.3-17.1l73.5-168.9 49.6 182.4zm224.9 0c50.7 0 83.6-31 83.6-78.5 0-30.3-17.2-51-40.7-58.5 19.2-6.1 36-22.5 36-55.4 0-44.2-33.5-67.1-84.2-67.1h-190v259.5zm-1.7-112.8c25.3 0 39.2 12.2 39.2 33.6 0 25.3-23.5 34.3-56 34.3h-131.4v-169.3h127.5c33.5 0 55.3 4.3 55.3 31.8 0 22.5-12.1 31.4-37.9 31.4h-112v38.2zm357-1.8c0 52.2-23.3 73.6-94.7 73.6-71.4 0-94.6-21.4-94.6-73.6v-144.9h-46.7v144.9c0 80.4 40 118.2 139.9 118.2 100.7 0 140.3-37.8 140.3-118.2v-144.9h-44.2z"/><path class="a" d="m295.2 1622.9c0 18.7-8.4 26.4-34.3 26.4-25.8 0-34.2-7.7-34.2-26.4v-52h-17v52c0 28.8 14.5 42.4 50.7 42.4 36.5 0 50.8-13.6 50.8-42.4v-52h-16zm98.6 41.1c19.7 0 29.3-11.6 29.3-27.2 0-18.1-10.3-26.9-29.3-26.9h-43c-7.2 0-11.8-4.2-11.8-11.3 0-7 4.4-11.4 11.9-11.4h67.5v-16.2h-67.5c-18.7 0-28.9 11.1-28.9 26.1 0 15.3 11 26.5 28.7 26.5h43.1c8.8 0 13.7 4.1 13.7 12 0 7.3-4.9 12.2-13.7 12.2h-70.4v16.2zm57.9 0v-93h-16.4v93zm95.8-2.3c2.4 2.3 4.8 3.5 7.5 3.5 4.8 0 8.2-3.6 8.2-9.7v-85.3h-15.7v68.1l-66.3-65.1c-2.4-2.5-4.5-3.4-7-3.4-5.1 0-8.4 3.7-8.4 9.8v84.4h15.7v-68.1zm146.6 2.3l-54.2-89c-1.9-3.2-4.2-5.3-7.9-5.3-3.6 0-6 2.1-8 5.3l-54 89h18.7l42.7-71.4 20.9 34.8h-28.8l-7.7 13.2h44.4l14.1 23.4zm94.6 0v-54.1h-59v13.7h42.4v24.2h-40.2c-16.9 0-29.2-12.9-29.2-30.5 0-17.6 12.4-30.1 29.2-30.1h50.9v-16.2h-50.9c-26.2 0-45.6 18.2-45.6 45.6 0 27 19.4 47.4 45.6 47.4zm96.5 0v-16.2h-67.8v-60.6h67.6v-16.2h-83.9v93zm-3.6-40.4v-13.7h-52.1v13.7zm148.3 40.4l-24-87.5c-1.3-4.5-3.9-6.7-7.9-6.7-3.5 0-6.3 2-7.9 5.5l-28.9 65.8-29-65.8c-1.6-3.5-4.8-5.5-8.3-5.5-4.4 0-7 2.2-8.1 6.7l-24.2 87.5h16.2l17.9-65.4 26.5 60.6c1.7 3.9 4.6 6.1 8.4 6.1 4 0 6.6-2.2 8.4-6.1l26.7-60.6 17.9 65.4zm127.6 0v-16.2h-67.8v-60.6h67.6v-16.2h-83.9v93zm-3.6-40.4v-13.7h-52.1v13.7zm66.6 40.4v-76.8h63.5v-16.2h-79.7v93zm59.6-38.5v-14.2h-47.6v14.2zm96.6 38.5v-16.2h-67.8v-60.6h67.6v-16.2h-83.9v93zm-3.6-40.4v-13.7h-52.1v13.7zm125.6 40.4l-28.3-28.2c12.1-4.7 19.4-15.5 19.4-30.9 0-20.7-12.7-33.9-34.2-33.9h-67.4v93h16.2v-76.8h51.2c11.3 0 18 5.9 18 18 0 12-6.2 18.6-18 18.6h-39.1v14.4h35.1l23.8 25.8zm116.4 0l-28.3-28.2c12.1-4.7 19.4-15.5 19.4-30.9 0-20.7-12.7-33.9-34.2-33.9h-67.4v93h16.2v-76.8h51.2c11.3 0 18 5.9 18 18 0 12-6.2 18.6-18 18.6h-39.1v14.4h35.1l23.8 25.8zm123.6 0l-54.1-89c-2-3.2-4.3-5.3-7.9-5.3-3.6 0-6.1 2.1-8 5.3l-54.1 89h18.8l42.6-71.4 21 34.8h-28.8l-7.8 13.2h44.5l14.1 23.4zm140.6 0l-24-87.5c-1.3-4.5-3.9-6.7-7.9-6.7-3.5 0-6.3 2-7.9 5.5l-28.9 65.8-29-65.8c-1.5-3.5-4.8-5.5-8.3-5.5-4.4 0-6.9 2.2-8.1 6.7l-24.2 87.5h16.2l17.9-65.4 26.5 60.6c1.7 3.9 4.6 6.1 8.5 6.1 4 0 6.5-2.2 8.4-6.1l26.6-60.6 18 65.4zm92.2 0v-16.2h-67.8v-60.6h67.6v-16.2h-83.9v93zm-3.6-40.4v-13.7h-52.1v13.7zm96.3 38.1c2.4 2.3 4.8 3.5 7.5 3.5 4.8 0 8.2-3.6 8.2-9.7v-85.3h-15.7v68.1l-66.3-65.1c-2.4-2.5-4.5-3.4-7-3.4-5.1 0-8.4 3.7-8.4 9.8v84.4h15.7v-68.1zm75.4 2.3v-76.8h35.7v-16.2h-87.8v16.2h35.7v76.8zm143.9 0l-54.2-89c-1.9-3.2-4.3-5.3-7.9-5.3-3.6 0-6.1 2.1-8 5.3l-54 89h18.7l42.7-71.4 20.9 34.8h-28.8l-7.8 13.2h44.5l14.1 23.4zm117.9 0l-28.3-28.2c12.2-4.6 19.4-15.5 19.4-30.9 0-20.7-12.7-33.9-34.1-33.9h-67.5v93h16.3v-76.8h51.2c11.2 0 18 5.9 18 18 0 12-6.3 18.7-18 18.7h-39.2v14.3h35.2l23.8 25.8zm23.1 0v-93h-16.4v93zm132.3 0l-54.2-89c-1.9-3.2-4.2-5.3-7.9-5.3-3.6 0-6 2.1-8 5.3l-54 89h18.7l42.7-71.4 20.9 34.8h-28.8l-7.8 13.2h44.5l14.1 23.4z"/></svg>