<svg version="1.2" xmlns="http://www.w3.org/2000/svg" viewBox="0 0 4185 1108" width="1500" height="397"><style>.a{fill:#981d16}.b{fill:#233248}.c{fill:#233349}</style><path class="a" d="m1284.1 904v-58.9h-182.8c-60.8 0-104.9-46.9-104.9-110.5 0-64 44.6-109 104.9-109h182.8v-58.9h-182.8c-94.2 0-163.8 65.9-163.8 165.2 0 97.9 69.6 172.1 163.8 172.1zm470.5 0l-194.4-322.9c-7-11.6-15.4-19.1-28.3-19.1-13 0-21.9 7.5-28.8 19.1l-194 322.9h67.3l153.1-258.9 75.2 126.2h-103.5l-27.8 47.8h159.6l50.6 84.9zm458 0l-182.9-175.4 168-161.9h-76.6l-126.6 124.8-128.6-124.8h-81.2l168 161.9-180.9 175.4h76.5l140.1-137.8 141.6 137.8zm464.9 0l-194.4-322.9c-7-11.6-15.3-19.1-28.3-19.1-13 0-21.8 7.5-28.8 19.1l-194 322.9h67.3l153.1-258.9 75.2 126.2h-103.5l-27.8 47.8h159.6l50.6 84.9zm514.6 0l-86.3-317.4c-4.7-16.2-14-24.1-28.3-24.1-12.6 0-22.8 7-28.3 19.9l-104 238.5-103.9-238.5c-5.6-12.9-17.2-19.9-29.7-19.9-15.8 0-25.1 7.9-29.2 24.1l-86.8 317.4h58l64.5-237.1 95.1 219.5c6 14.4 16.2 22.2 30.2 22.2 14.4 0 23.6-7.8 30.1-22.2l95.6-219.5 64.5 237.1zm292.3 0c65.9 0 108.6-40.4 108.6-102.1 0-39.4-22.3-66.3-52.9-76.1 25.1-7.9 46.9-29.2 46.9-71.9 0-57.5-43.6-87.2-109.5-87.2h-246.9v337.3zm-2.3-146.6c32.9 0 51 15.8 51 43.6 0 32.9-30.6 44.5-72.8 44.5h-170.8v-219.9h165.7c43.6 0 71.9 5.6 71.9 41.3 0 29.2-15.8 40.8-49.2 40.8h-145.7v49.7zm464-2.3c0 67.7-30.1 95.5-122.9 95.5-92.8 0-123-27.8-123-95.5v-188.4h-60.8v188.4c0 104.4 52 153.5 181.9 153.5 130.9 0 182.4-49.1 182.4-153.5v-188.4h-57.6z"/><path class="b" d="m985.2 516v-100h81v-21.2h-101.8v121.2zm76.1-50.2v-18.5h-60.8v18.5zm230.2 50.2v-21.2h-86.4v-78.8h86.2v-21.2h-107v121.2zm-4.7-52.7v-17.8h-66.5v17.8zm267.2 52.7l-36.2-36.8c15.6-6 24.8-20.2 24.8-40.2 0-27-16.2-44.2-43.6-44.2h-86.1v121.2h20.8v-100h65.3c14.4 0 23 7.7 23 23.3 0 15.7-7.9 24.4-23 24.4h-50v18.6h44.9l30.4 33.7zm255.4 0l-36.1-36.8c15.5-6 24.7-20.2 24.7-40.2 0-27-16.2-44.2-43.5-44.2h-86.2v121.2h20.8v-100h65.4c14.3 0 22.9 7.7 22.9 23.3 0 15.7-7.9 24.4-22.9 24.4h-50v18.6h44.8l30.4 33.7zm264.7 0l-69.2-116c-2.4-4.2-5.4-6.8-10-6.8-4.7 0-7.8 2.6-10.3 6.8l-68.9 116h23.9l54.4-93 26.8 45.3h-36.8l-9.9 17.2h56.7l18 30.5zm286.5 0l-30.7-114c-1.7-5.8-5-8.7-10.1-8.7-4.5 0-8.1 2.5-10.1 7.2l-36.9 85.7-37-85.7c-2-4.7-6.1-7.2-10.5-7.2-5.7 0-9 2.9-10.4 8.7l-30.9 114h20.6l23-85.2 33.8 78.9c2.1 5.1 5.8 8 10.7 8 5.1 0 8.4-2.9 10.7-8l34-78.9 23 85.2zm224.5 0v-21.2h-86.4v-78.8h86.3v-21.2h-107.1v121.2zm-4.6-52.7v-17.8h-66.5v17.8zm229.8 49.7c3 3 6.1 4.5 9.6 4.5 6.1 0 10.4-4.7 10.4-12.7v-111h-20v88.7l-84.6-84.8c-3.2-3.2-5.8-4.4-8.9-4.4-6.6 0-10.8 4.9-10.8 12.7v110h20v-88.7zm203.1 3v-99.9h45.6v-21.2h-112.1v21.2h45.6v99.9zm290.5 0l-69.1-115.9c-2.5-4.2-5.5-6.9-10.1-6.9-4.6 0-7.7 2.7-10.2 6.9l-69 115.9h23.9l54.5-92.9 26.7 45.3h-36.8l-9.9 17.1h56.8l18 30.5zm257.4 0l-36.2-36.8c15.6-6 24.8-20.2 24.8-40.2 0-26.9-16.2-44.1-43.6-44.1h-86.1v121.1h20.8v-99.9h65.3c14.4 0 23 7.6 23 23.3 0 15.6-8 24.3-23 24.3h-50v18.7h44.9l30.4 33.6zm136.4 0v-121.1h-20.9v121.1zm275.7 0l-69.1-115.9c-2.5-4.2-5.5-6.9-10.1-6.9-4.6 0-7.8 2.7-10.2 6.9l-69 115.9h23.9l54.5-92.9 26.7 45.3h-36.8l-9.9 17.1h56.8l17.9 30.5z"/><path fill-rule="evenodd" class="c" d="m855.6 907.9h-452.5c-111.5 0-202.8-91.3-202.8-202.8v-504.4h452.5c111.6 0 202.8 91.3 202.8 202.9zm-12-7.6l-84.7-83.8-39.3-37.3-54 54.6h-119.3l74.8 74.1h88.8l-33.2-32.8h24.2l19.9-20.1 53.5 52.9h77.1zm-474.8-382.3l261.9-267.8-73.5 0.4-302.3 305.5 0.4 77.3 158.9 157.3 83.1-0.4 294.9-298.1-0.4-82.1-263.2 266zm85.4 224.6l-155.5-153.8 32-32.3 155.4 153.8zm185.8 46.9l153-154.7-0.3-70.4-219.4 225.4zm-351.6-343l194.7-195.5-71.9 0.4-123.1 124.6z"/></svg>